<svg xmlns="http://www.w3.org/2000/svg" viewBox="0 0 64 64">
  <circle cx="32" cy="32" r="30" fill="#f1f5f9" stroke="#0f172a" stroke-width="1.5"/>
  <circle cx="32" cy="32" r="30" fill="url(#shine)" opacity="0.4"/>
  <!-- Pentagone central -->
  <polygon points="32,17 43.5,25.3 39.2,38.7 24.8,38.7 20.5,25.3" fill="#0f172a"/>
  <!-- Pentagones extérieurs -->
  <polygon points="32,17 43.5,25.3 50.5,19 47,7 35,4" fill="#0f172a"/>
  <polygon points="43.5,25.3 50.5,19 60,25 57.5,37 45.5,38" fill="#0f172a"/>
  <polygon points="39.2,38.7 45.5,38 50,48 43,57 32,55" fill="#0f172a"/>
  <polygon points="24.8,38.7 32,55 21,57 14,48 18.5,38" fill="#0f172a"/>
  <polygon points="20.5,25.3 18.5,38 6.5,37 4,25 13.5,19" fill="#0f172a"/>
  <polygon points="32,17 20.5,25.3 13.5,19 17,7 29,4" fill="#0f172a"/>
  <!-- Reflet -->
  <defs>
    <radialGradient id="shine" cx="35%" cy="30%" r="50%">
      <stop offset="0%" stop-color="#ffffff" stop-opacity="0.6"/>
      <stop offset="100%" stop-color="#ffffff" stop-opacity="0"/>
    </radialGradient>
  </defs>
</svg>
